# xmcd
#
# Track frame offsets:
#  150
#  18272
#  26262
#  42417
#  56952
#  70355
#  85417
#  99437
#  108100
#  120902
#  135875
#  147990
#  168212
#  182152
#  193070
#  207885
#  224550
#  235687
#  245795
#  256147
#
# Disc length: 3613 seconds
#
# Revision: 0
# Processed by: cddbd v1.5.2PL0 Copyright (c) Steve Scherf et al.
# Submitted via: Collectorz.com_Music_Collector 6.10
#
DISCID=170e1b14
DTITLE=Eva Busch - Eva Busch und Ihre Lieder
DYEAR=1997
DGENRE=Germany
TTITLE0=Et Pourtant
TTITLE1=Wenn Liebe Die Welt regiert
TTITLE2=Il ne faut pas briser un reve
TTITLE3=Du sollst nicht traurig sein
TTITLE4=Je t'aime tant
TTITLE5=Der Wind und das Meer
TTITLE6=Bel ami
TTITLE7=Nasse Lyrik
TTITLE8=Baumwollpflucker
TTITLE9=Le temps qu 'une hirondelle
TTITLE10=Das ist dis StraBe
TTITLE11=L'Arbre du passe
TTITLE12=Die Moorsoldaten
TTITLE13=J'ai perdue le tete
TTITLE14=Eine Zigarette lang
TTITLE15=Celle qui etait trop gaie
TTITLE16=La fontaine aux fees
TTITLE17=Chanson de Bilitis - La flute de Pan
TTITLE18=Fruhlingslied
TTITLE19=La Marseillaise
EXTD=
EXTT0=
EXTT1=
EXTT2=
EXTT3=
EXTT4=
EXTT5=
EXTT6=
EXTT7=
EXTT8=
EXTT9=
EXTT10=
EXTT11=
EXTT12=
EXTT13=
EXTT14=
EXTT15=
EXTT16=
EXTT17=
EXTT18=
EXTT19=
PLAYORDER=
